# xmcd
# Copyright (C) 1995-1998 Ti Kan
#
# Track frame offsets:
#       150
#       23223
#       43823
#       61426
#       80202
#       100845
#       117722
#       138087
#       163916
#       180433
#
# Disc length: 2625 seconds
#
# Revision: 0
# Processed by: cddbd v1.5.2PL0 Copyright (c) Steve Scherf et al.
# Submitted via: CD-Transfer v1.0
#
DISCID=8b0a3f0a
DTITLE=Atma Mundi - Zoran Majstoroviæ
DYEAR=16
DGENRE=
TTITLE0=Song For L.y.
TTITLE1=Luntai Forest
TTITLE2=Yakamoz Chant
TTITLE3=Yangin
TTITLE4=Laghi Gemelli
TTITLE5=Bamako Postcard
TTITLE6=Nabul
TTITLE7=Waters And Deserts
TTITLE8=Ravni
TTITLE9=A Day Long Ago
EXTD=
EXTT0=
EXTT1=
EXTT2=
EXTT3=
EXTT4=
EXTT5=
EXTT6=
EXTT7=
EXTT8=
EXTT9=
PLAYORDER=
